<svg width="50" height="50" viewBox="0 0 50 50" fill="none" xmlns="http://www.w3.org/2000/svg">
<g clip-path="url(#clip0_12_103)">
<path d="M44.7917 8.33331H40.2778V11.1111H44.4445V41.6666H5.55557V11.1111H9.72224V8.33331H5.20835C4.88368 8.33874 4.56326 8.40807 4.26538 8.53735C3.96751 8.66663 3.69803 8.85333 3.47232 9.08677C3.24662 9.32022 3.06911 9.59584 2.94994 9.8979C2.83077 10.2 2.77227 10.5225 2.77779 10.8472V41.9305C2.77227 42.2552 2.83077 42.5778 2.94994 42.8798C3.06911 43.1819 3.24662 43.4575 3.47232 43.691C3.69803 43.9244 3.96751 44.1111 4.26538 44.2404C4.56326 44.3697 4.88368 44.439 5.20835 44.4444H44.7917C45.1164 44.439 45.4368 44.3697 45.7346 44.2404C46.0325 44.1111 46.302 43.9244 46.5277 43.691C46.7534 43.4575 46.9309 43.1819 47.0501 42.8798C47.1693 42.5778 47.2278 42.2552 47.2222 41.9305V10.8472C47.2278 10.5225 47.1693 10.2 47.0501 9.8979C46.9309 9.59584 46.7534 9.32022 46.5277 9.08677C46.302 8.85333 46.0325 8.66663 45.7346 8.53735C45.4368 8.40807 45.1164 8.33874 44.7917 8.33331Z" fill="black"/>
<path d="M11.1111 19.4445H13.8889V22.2222H11.1111V19.4445Z" fill="black"/>
<path d="M19.4445 19.4445H22.2222V22.2222H19.4445V19.4445Z" fill="black"/>
<path d="M27.7778 19.4445H30.5555V22.2222H27.7778V19.4445Z" fill="black"/>
<path d="M36.1111 19.4445H38.8889V22.2222H36.1111V19.4445Z" fill="black"/>
<path d="M11.1111 26.3889H13.8889V29.1667H11.1111V26.3889Z" fill="black"/>
<path d="M19.4445 26.3889H22.2222V29.1667H19.4445V26.3889Z" fill="black"/>
<path d="M27.7778 26.3889H30.5555V29.1667H27.7778V26.3889Z" fill="black"/>
<path d="M36.1111 26.3889H38.8889V29.1667H36.1111V26.3889Z" fill="black"/>
<path d="M11.1111 33.3333H13.8889V36.1111H11.1111V33.3333Z" fill="black"/>
<path d="M19.4445 33.3333H22.2222V36.1111H19.4445V33.3333Z" fill="black"/>
<path d="M27.7778 33.3333H30.5555V36.1111H27.7778V33.3333Z" fill="black"/>
<path d="M36.1111 33.3333H38.8889V36.1111H36.1111V33.3333Z" fill="black"/>
<path d="M13.8889 13.8889C14.2572 13.8889 14.6105 13.7426 14.871 13.4821C15.1314 13.2216 15.2778 12.8683 15.2778 12.5V4.16666C15.2778 3.7983 15.1314 3.44503 14.871 3.18457C14.6105 2.9241 14.2572 2.77777 13.8889 2.77777C13.5205 2.77777 13.1673 2.9241 12.9068 3.18457C12.6463 3.44503 12.5 3.7983 12.5 4.16666V12.5C12.5 12.8683 12.6463 13.2216 12.9068 13.4821C13.1673 13.7426 13.5205 13.8889 13.8889 13.8889Z" fill="black"/>
<path d="M36.1111 13.8889C36.4795 13.8889 36.8327 13.7426 37.0932 13.4821C37.3537 13.2216 37.5 12.8683 37.5 12.5V4.16666C37.5 3.7983 37.3537 3.44503 37.0932 3.18457C36.8327 2.9241 36.4795 2.77777 36.1111 2.77777C35.7428 2.77777 35.3895 2.9241 35.129 3.18457C34.8686 3.44503 34.7222 3.7983 34.7222 4.16666V12.5C34.7222 12.8683 34.8686 13.2216 35.129 13.4821C35.3895 13.7426 35.7428 13.8889 36.1111 13.8889Z" fill="black"/>
<path d="M18.0555 8.33331H31.9444V11.1111H18.0555V8.33331Z" fill="black"/>
</g>
<defs>
<clipPath id="clip0_12_103">
<rect width="50" height="50" fill="white"/>
</clipPath>
</defs>
</svg>
