<svg width="50" height="50" viewBox="0 0 50 50" fill="none" xmlns="http://www.w3.org/2000/svg">
<path d="M8.33333 1.66667V0H6.66667V1.66667H8.33333ZM41.6667 1.66667H43.3333V0H41.6667V1.66667ZM16.49 15.7467C16.684 15.352 16.7141 14.8966 16.5738 14.4798C16.4335 14.063 16.1341 13.7185 15.7409 13.5215C15.3477 13.3245 14.8926 13.2908 14.4747 13.4279C14.0568 13.565 13.7101 13.8617 13.51 14.2533L16.49 15.7467ZM8.33333 28.3133L6.84333 27.57L6.35667 28.5467L7.05667 29.3833L8.33333 28.3133ZM25 48.3033L23.72 49.37C23.8764 49.5581 24.0723 49.7096 24.2938 49.8135C24.5153 49.9174 24.757 49.9713 25.0017 49.9713C25.2463 49.9713 25.488 49.9174 25.7095 49.8135C25.931 49.7096 26.1269 49.5581 26.2833 49.37L25 48.3033ZM41.6667 28.3167L42.9467 29.3833L43.6467 28.5467L43.16 27.57L41.67 28.3167H41.6667ZM36.49 14.2533C36.2899 13.8617 35.9432 13.565 35.5253 13.4279C35.1074 13.2908 34.6523 13.3245 34.2591 13.5215C33.8659 13.7185 33.5665 14.063 33.4262 14.4798C33.2859 14.8966 33.316 15.352 33.51 15.7467L36.49 14.2533ZM26.6667 31.6467V29.98H23.3333V31.6467H26.6667ZM25 16.6567C23.0308 16.6575 21.0806 16.2705 19.261 15.5176C17.4414 14.7647 15.7879 13.6608 14.395 12.2688C13.0021 10.8768 11.897 9.22401 11.1429 7.40488C10.3888 5.58576 10.0004 3.6359 10 1.66667H6.66667C6.6671 4.07364 7.14168 6.45695 8.0633 8.68049C8.98491 10.904 10.3355 12.9243 12.038 14.6258C13.7404 16.3273 15.7614 17.6768 17.9854 18.5972C20.2095 19.5176 22.593 19.9909 25 19.99V16.6567ZM8.33333 3.33333H41.6667V0H8.33333V3.33333ZM40 1.66667C39.9996 3.6359 39.6112 5.58576 38.8571 7.40488C38.103 9.22401 36.9979 10.8768 35.605 12.2688C34.2121 13.6608 32.5586 14.7647 30.739 15.5176C28.9193 16.2705 26.9692 16.6575 25 16.6567V19.99C35.1267 19.99 43.3333 11.79 43.3333 1.66667H40ZM13.51 14.2533L6.84333 27.57L9.82667 29.0633L16.49 15.7467L13.51 14.2533ZM7.05333 29.3833L23.72 49.37L26.2833 47.2367L9.61667 27.25L7.05333 29.3833ZM26.28 49.37L42.9467 29.3833L40.3867 27.25L23.72 47.2367L26.2833 49.37H26.28ZM43.16 27.57L36.4933 14.2533L33.51 15.7467L40.1767 29.0633L43.16 27.57ZM26.6667 48.3V31.6467H23.3333V48.3033H26.6667V48.3Z" fill="black"/>
</svg>
