<svg width="50" height="50" viewBox="0 0 50 50" fill="none" xmlns="http://www.w3.org/2000/svg">
<g clip-path="url(#clip0_12_101)">
<path d="M25 0C11.193 0 0 11.193 0 25C0 38.8078 11.193 50 25 50C38.8078 50 50 38.8078 50 25C50 11.193 38.8078 0 25 0ZM25 46.9242C12.9383 46.9242 3.125 37.0617 3.125 24.9999C3.125 12.9382 12.9383 3.1249 25 3.1249C37.0617 3.1249 46.875 12.9382 46.875 24.9999C46.875 37.0616 37.0617 46.9242 25 46.9242ZM34.9773 15.8523L20.3093 30.6125L13.7039 24.007C13.0937 23.3969 12.1046 23.3969 11.4937 24.007C10.8835 24.6172 10.8835 25.6062 11.4937 26.2164L19.2273 33.9508C19.8375 34.5602 20.8265 34.5602 21.4375 33.9508C21.5078 33.8805 21.568 33.8039 21.6227 33.7242L37.1883 18.0625C37.7977 17.4523 37.7977 16.4632 37.1883 15.8523C36.5773 15.2422 35.5883 15.2422 34.9773 15.8523Z" fill="black"/>
</g>
<defs>
<clipPath id="clip0_12_101">
<rect width="50" height="50" fill="white"/>
</clipPath>
</defs>
</svg>
