<svg width="50" height="50" viewBox="0 0 50 50" fill="none" xmlns="http://www.w3.org/2000/svg">
<path d="M35.4167 8.33335V20.8334L31.25 16.6667L27.0833 20.8334V8.33335H18.75V41.6667H39.5833V8.33335H35.4167ZM6.25 14.5834V10.4167H10.4167V8.33335C10.4167 7.22829 10.8557 6.16848 11.6371 5.38708C12.4185 4.60567 13.4783 4.16669 14.5833 4.16669H39.5833C41.7708 4.16669 43.75 6.14585 43.75 8.33335V41.6667C43.75 43.8542 41.7708 45.8334 39.5833 45.8334H14.5833C12.3958 45.8334 10.4167 43.8542 10.4167 41.6667V39.5834H6.25V35.4167H10.4167V27.0834H6.25V22.9167H10.4167V14.5834H6.25ZM10.4167 10.4167V14.5834H14.5833V10.4167H10.4167ZM10.4167 39.5834H14.5833V35.4167H10.4167V39.5834ZM10.4167 27.0834H14.5833V22.9167H10.4167V27.0834Z" fill="black"/>
</svg>
